<svg width="160" height="150" viewBox="0 0 160 150" fill="none" xmlns="http://www.w3.org/2000/svg">
<g id="Logo">
<path id="Vector" fill-rule="evenodd" clip-rule="evenodd" d="M75.0342 1.20567C96.0841 -2.81496 119.195 3.31206 134.469 18.2134C149.826 33.1959 152.632 55.7389 152.815 77.0899C153 98.6757 151.406 122.233 135.485 136.973C119.87 151.43 96.3324 150.871 75.0342 149.102C55.8779 147.511 37.7156 140.986 23.9347 127.709C9.94738 114.234 -2.02152 96.2822 0.286725 77.0899C2.45974 59.022 21.9864 50.2711 34.8144 37.248C47.9395 23.9232 56.5805 4.73042 75.0342 1.20567Z" fill="#6C69FF"/>
<path id="Vector_2" fill-rule="evenodd" clip-rule="evenodd" d="M82.1605 25.9676C101.572 27.3933 122.112 26.5086 136.703 39.2704C152.024 52.6703 163.251 73.4674 159.147 93.3009C155.351 111.646 134.09 118.887 118.148 128.95C106.959 136.013 95.3567 140.538 82.1605 141.898C66.7901 143.482 50.1001 146.516 37.8142 137.231C24.4175 127.105 20.7809 109.741 17.8615 93.3009C14.0621 71.9052 3.81138 46.3987 18.882 30.6169C33.9921 14.7938 60.2331 24.3571 82.1605 25.9676Z" fill="#0A05FF"/>
<ellipse id="Ellipse 15" cx="47.4442" cy="82.6495" rx="10.9675" ry="10.8645" fill="white"/>
<ellipse id="Ellipse 16" cx="85.4588" cy="82.6495" rx="10.9675" ry="10.8645" fill="white"/>
<ellipse id="Ellipse 17" cx="123.473" cy="82.6495" rx="10.9675" ry="10.8645" fill="white"/>
</g>
</svg>
